<svg width="337" height="338" viewBox="0 0 337 338" fill="none" xmlns="http://www.w3.org/2000/svg">
<g clip-path="url(#clip0)">
<path d="M32.4079 284.735L29.4399 273.03C24.1775 270.8 18.7935 268.868 13.3135 267.244L12.9389 272.684L11.4196 266.691C4.62349 264.748 0 263.894 0 263.894C0 263.894 6.24368 287.641 19.3437 305.796L34.6063 308.478L22.7492 310.187C24.397 312.17 26.1679 314.047 28.0514 315.807C47.1059 333.494 68.3295 341.609 75.455 333.932C82.5805 326.255 72.91 305.695 53.8554 288.01C47.9484 282.527 40.5279 278.127 33.0997 274.663L32.4079 284.735Z" fill="#F2F2F2"/>
<path d="M60.6339 272.021L64.1439 260.467C60.7922 255.838 57.182 251.401 53.3306 247.179L50.1979 251.642L51.995 245.726C47.1806 240.552 43.6646 237.431 43.6646 237.431C43.6646 237.431 36.7355 260.987 38.5634 283.3L50.2431 293.484L39.2072 288.819C39.5933 291.368 40.1395 293.891 40.8423 296.371C48.0117 321.361 61.9853 339.278 72.0531 336.389C82.1208 333.501 84.4708 310.902 77.3014 285.912C75.079 278.165 71.0007 270.563 66.4324 263.759L60.6339 272.021Z" fill="#F2F2F2"/>
<path d="M235.157 80.0724H233.305V29.355C233.305 25.5001 232.546 21.6829 231.071 18.1214C229.596 14.5598 227.433 11.3238 224.707 8.5979C221.981 5.87204 218.745 3.70976 215.184 2.23453C211.622 0.759303 207.805 1.52588e-05 203.95 1.52588e-05H96.4917C88.7061 1.52588e-05 81.2394 3.09277 75.7341 8.5979C70.2288 14.103 67.136 21.5696 67.136 29.355V307.599C67.136 311.454 67.8953 315.272 69.3706 318.833C70.8458 322.395 73.0082 325.631 75.7341 328.357C78.46 331.082 81.6962 333.245 85.2578 334.72C88.8194 336.195 92.6367 336.954 96.4917 336.954H203.95C211.735 336.954 219.202 333.862 224.707 328.356C230.212 322.851 233.305 315.385 233.305 307.599V116.174H235.156L235.157 80.0724Z" fill="#E6E6E6"/>
<path d="M205.134 7.63431H191.109C191.754 9.21582 192 10.9317 191.825 12.6308C191.651 14.3299 191.062 15.96 190.109 17.3776C189.156 18.7951 187.869 19.9566 186.362 20.7597C184.854 21.5627 183.172 21.9827 181.464 21.9827H119.903C118.195 21.9826 116.513 21.5625 115.006 20.7593C113.498 19.9562 112.212 18.7947 111.259 17.3772C110.306 15.9597 109.717 14.3296 109.543 12.6306C109.368 10.9316 109.614 9.21575 110.26 7.63431H97.1586C91.3444 7.63431 85.7683 9.94395 81.657 14.0551C77.5457 18.1663 75.236 23.7423 75.236 29.5563V307.397C75.236 313.211 77.5457 318.787 81.657 322.898C85.7683 327.009 91.3444 329.319 97.1586 329.319H205.134C210.948 329.319 216.525 327.009 220.636 322.898C224.747 318.787 227.057 313.211 227.057 307.397V29.5559C227.057 23.7419 224.747 18.166 220.636 14.055C216.524 9.94388 210.948 7.63431 205.134 7.63431Z" fill="white"/>
<path d="M137.387 118.312C137.387 116.37 137.898 114.462 138.87 112.78C139.841 111.098 141.238 109.702 142.921 108.732C141.239 107.761 139.332 107.249 137.39 107.249C135.448 107.249 133.54 107.76 131.858 108.731C130.176 109.702 128.779 111.098 127.808 112.78C126.837 114.462 126.326 116.369 126.326 118.311C126.326 120.253 126.837 122.161 127.808 123.842C128.779 125.524 130.176 126.921 131.858 127.891C133.54 128.862 135.448 129.373 137.39 129.373C139.332 129.373 141.239 128.861 142.921 127.89C141.238 126.92 139.841 125.524 138.87 123.843C137.899 122.161 137.387 120.254 137.387 118.312Z" fill="#CCCCCC"/>
<path d="M151.294 118.312C151.294 116.37 151.805 114.462 152.776 112.78C153.748 111.098 155.145 109.702 156.828 108.732C155.146 107.761 153.238 107.249 151.296 107.249C149.354 107.249 147.446 107.76 145.765 108.731C144.083 109.702 142.686 111.098 141.715 112.78C140.744 114.462 140.233 116.369 140.233 118.311C140.233 120.253 140.744 122.161 141.715 123.842C142.686 125.524 144.083 126.921 145.765 127.891C147.446 128.862 149.354 129.373 151.296 129.373C153.238 129.373 155.146 128.861 156.828 127.89C155.145 126.92 153.748 125.524 152.777 123.843C151.805 122.161 151.294 120.254 151.294 118.312Z" fill="#CCCCCC"/>
<path d="M164.885 129.373C170.994 129.373 175.947 124.421 175.947 118.311C175.947 112.202 170.994 107.249 164.885 107.249C158.776 107.249 153.823 112.202 153.823 118.311C153.823 124.421 158.776 129.373 164.885 129.373Z" fill="#18D860"/>
<path d="M183.373 152.862H118.9C118.286 152.861 117.698 152.617 117.264 152.183C116.83 151.749 116.585 151.161 116.585 150.547V86.0757C116.585 85.4619 116.83 84.8735 117.264 84.4395C117.698 84.0055 118.286 83.7613 118.9 83.7606H183.373C183.986 83.7613 184.575 84.0055 185.009 84.4395C185.443 84.8735 185.687 85.4619 185.688 86.0757V150.547C185.687 151.161 185.443 151.749 185.009 152.183C184.575 152.617 183.986 152.861 183.373 152.862ZM118.9 84.6872C118.532 84.6876 118.178 84.834 117.918 85.0944C117.658 85.3548 117.511 85.7079 117.511 86.0762V150.547C117.511 150.916 117.658 151.269 117.918 151.529C118.178 151.79 118.532 151.936 118.9 151.936H183.373C183.741 151.936 184.094 151.79 184.354 151.529C184.615 151.269 184.761 150.916 184.762 150.547V86.0762C184.761 85.7079 184.615 85.3548 184.354 85.0944C184.094 84.834 183.741 84.6876 183.373 84.6872H118.9Z" fill="#CCCCCC"/>
<path d="M197.768 202.282H98.8865V203.208H197.768V202.282Z" fill="#CCCCCC"/>
<path d="M102.009 196.5C103.734 196.5 105.132 195.102 105.132 193.378C105.132 191.653 103.734 190.255 102.009 190.255C100.285 190.255 98.8865 191.653 98.8865 193.378C98.8865 195.102 100.285 196.5 102.009 196.5Z" fill="#18D860"/>
<path d="M197.768 233.507H98.8865V234.433H197.768V233.507Z" fill="#CCCCCC"/>
<path d="M102.009 227.726C103.734 227.726 105.132 226.328 105.132 224.603C105.132 222.878 103.734 221.48 102.009 221.48C100.285 221.48 98.8865 222.878 98.8865 224.603C98.8865 226.328 100.285 227.726 102.009 227.726Z" fill="#18D860"/>
<path d="M195.959 269.065H164.709C164.17 269.064 163.652 268.85 163.27 268.468C162.889 268.086 162.674 267.569 162.673 267.029V256.076C162.674 255.537 162.889 255.019 163.27 254.637C163.652 254.256 164.17 254.041 164.709 254.04H195.959C196.499 254.041 197.016 254.256 197.398 254.637C197.78 255.019 197.994 255.537 197.995 256.076V267.029C197.994 267.569 197.78 268.086 197.398 268.468C197.016 268.85 196.499 269.064 195.959 269.065Z" fill="#18D860"/>
<path d="M112.196 196.5C113.92 196.5 115.318 195.102 115.318 193.378C115.318 191.653 113.92 190.255 112.196 190.255C110.471 190.255 109.073 191.653 109.073 193.378C109.073 195.102 110.471 196.5 112.196 196.5Z" fill="#18D860"/>
<path d="M122.382 196.5C124.106 196.5 125.505 195.102 125.505 193.378C125.505 191.653 124.106 190.255 122.382 190.255C120.657 190.255 119.259 191.653 119.259 193.378C119.259 195.102 120.657 196.5 122.382 196.5Z" fill="#18D860"/>
<path d="M112.196 227.726C113.92 227.726 115.318 226.328 115.318 224.603C115.318 222.878 113.92 221.48 112.196 221.48C110.471 221.48 109.073 222.878 109.073 224.603C109.073 226.328 110.471 227.726 112.196 227.726Z" fill="#18D860"/>
<path d="M122.382 227.726C124.106 227.726 125.505 226.328 125.505 224.603C125.505 222.878 124.106 221.48 122.382 221.48C120.657 221.48 119.259 222.878 119.259 224.603C119.259 226.328 120.657 227.726 122.382 227.726Z" fill="#18D860"/>
<path d="M335.741 338H10.8948C10.1994 338 9.63611 337.753 9.63611 337.449C9.63611 337.145 10.1994 336.897 10.8948 336.897H335.741C336.436 336.897 337 337.144 337 337.449C337 337.753 336.436 338 335.741 338Z" fill="#3F3D56"/>
<path d="M255.483 221.447C255.705 221.548 255.918 221.668 256.121 221.803L276.414 213.142L277.139 207.797L285.247 207.747L284.768 220.007L257.984 227.09C257.927 227.276 257.86 227.459 257.781 227.637C257.394 228.463 256.771 229.157 255.991 229.63C255.211 230.104 254.308 230.336 253.397 230.298C252.485 230.261 251.605 229.954 250.866 229.418C250.128 228.882 249.565 228.139 249.247 227.284C248.93 226.428 248.872 225.498 249.081 224.61C249.291 223.722 249.758 222.915 250.424 222.291C251.09 221.668 251.926 221.255 252.826 221.105C253.726 220.955 254.65 221.074 255.483 221.447Z" fill="#FFB8B8"/>
<path d="M288.196 332.546H282.649L280.01 311.151L288.197 311.151L288.196 332.546Z" fill="#FFB8B8"/>
<path d="M278.687 330.961H289.385V337.696H271.952C271.952 335.909 272.661 334.196 273.924 332.933C275.188 331.67 276.901 330.961 278.687 330.961Z" fill="#2F2E41"/>
<path d="M309.768 330.978L304.248 331.522L299.524 310.49L307.671 309.687L309.768 330.978Z" fill="#FFB8B8"/>
<path d="M300.15 330.333L310.796 329.285L311.456 335.987L294.107 337.696C294.021 336.816 294.108 335.927 294.365 335.081C294.622 334.235 295.043 333.447 295.604 332.763C296.165 332.08 296.855 331.513 297.635 331.096C298.415 330.679 299.27 330.42 300.15 330.333Z" fill="#2F2E41"/>
<path d="M289.74 185.105C295.877 185.105 300.852 180.13 300.852 173.993C300.852 167.856 295.877 162.881 289.74 162.881C283.603 162.881 278.628 167.856 278.628 173.993C278.628 180.13 283.603 185.105 289.74 185.105Z" fill="#FFB8B8"/>
<path d="M281.41 328.219C280.933 328.22 280.471 328.053 280.106 327.747C279.74 327.441 279.495 327.016 279.412 326.546C276.541 310.609 267.156 258.498 266.932 257.055C266.927 257.022 266.925 256.988 266.925 256.955V253.069C266.925 252.928 266.969 252.79 267.051 252.675L268.291 250.938C268.35 250.855 268.427 250.786 268.517 250.737C268.607 250.688 268.706 250.66 268.808 250.655C275.877 250.324 299.024 249.353 300.143 250.75C301.266 252.154 300.869 256.408 300.778 257.247L300.782 257.335L311.182 323.84C311.263 324.37 311.133 324.911 310.818 325.346C310.504 325.781 310.03 326.074 309.501 326.163L303.006 327.233C302.522 327.31 302.026 327.212 301.609 326.955C301.192 326.698 300.881 326.3 300.732 325.833C298.723 319.414 291.987 297.82 289.652 289.464C289.638 289.411 289.604 289.365 289.558 289.335C289.512 289.305 289.457 289.293 289.403 289.3C289.348 289.308 289.299 289.335 289.263 289.377C289.227 289.419 289.208 289.472 289.208 289.527C289.325 297.492 289.607 317.814 289.704 324.833L289.715 325.589C289.719 326.101 289.531 326.596 289.188 326.976C288.846 327.356 288.373 327.593 287.863 327.641L281.6 328.211C281.536 328.216 281.472 328.219 281.41 328.219Z" fill="#2F2E41"/>
<path d="M282.688 189.474C280.748 190.627 279.588 192.745 278.922 194.901C277.689 198.892 276.947 203.018 276.712 207.189L276.008 219.676L267.297 252.78C274.847 259.169 279.203 257.717 289.367 252.491C299.531 247.266 300.692 254.234 300.692 254.234L302.725 226.066L305.629 195.286C304.977 194.501 304.239 193.792 303.429 193.172C300.745 191.084 297.622 189.634 294.296 188.929C290.97 188.224 287.527 188.283 284.227 189.102L282.688 189.474Z" fill="#18D860"/>
<path d="M279.858 228.133C280.092 228.221 280.319 228.327 280.537 228.451L300.602 218.409L300.935 212.968L309.212 212.397L309.655 224.8L282.841 233.667C282.622 234.606 282.122 235.456 281.408 236.104C280.695 236.752 279.8 237.168 278.844 237.296C277.889 237.423 276.917 237.257 276.058 236.818C275.199 236.38 274.494 235.691 274.036 234.842C273.579 233.993 273.39 233.025 273.496 232.067C273.602 231.108 273.998 230.205 274.63 229.476C275.262 228.748 276.1 228.23 277.034 227.99C277.968 227.749 278.953 227.799 279.858 228.133Z" fill="#FFB8B8"/>
<path d="M305.484 195.427C310.42 197.17 311.29 216.046 311.29 216.046C305.482 212.852 298.512 218.079 298.512 218.079C298.512 218.079 297.061 213.142 295.318 206.754C294.792 204.957 294.729 203.056 295.135 201.228C295.541 199.4 296.403 197.705 297.641 196.3C297.641 196.3 300.547 193.684 305.484 195.427Z" fill="#18D860"/>
<path d="M299.704 176.931C298.32 175.824 296.431 177.837 296.431 177.837L295.323 167.868C295.323 167.868 288.4 168.698 283.969 167.592C279.539 166.486 278.847 171.607 278.847 171.607C278.618 169.538 278.572 167.453 278.708 165.377C278.985 162.884 282.585 160.392 288.954 158.731C295.323 157.069 298.646 164.269 298.646 164.269C303.077 166.484 301.089 178.039 299.704 176.931Z" fill="#2F2E41"/>
</g>
<defs>
<clipPath id="clip0">
<rect width="337" height="338" fill="white"/>
</clipPath>
</defs>
</svg>
